<svg id="Camada_1" data-name="Camada 1" xmlns="http://www.w3.org/2000/svg" viewBox="0 0 328.44 277.17"><defs><style>.cls-1{fill:#fff;}</style></defs><title>logo</title><path class="cls-1" d="M455.28,260.57c96.16,16.57,145,122.82,94.87,206.35-25.84,43.06-65.44,65.27-115.76,67.21-23.43.91-46.92.12-70.38.47-6.57.09-9.32-2.11-8.88-8.74.33-5-.69-10.22.13-15.14,2.92-17.58-6.39-29.4-19.36-38.1-5.8-3.9-14.49-4.47-21.94-4.77-17-.66-15.41.83-15.54-15.77-.07-8.78.18-17.57-.15-26.34-.24-6.32,2.47-8.8,8.57-8.19,1.32.13,2.71-.2,4,.05,16.43,3.23,28.43-3.94,37.39-16.74a36,36,0,0,0,6.32-15.73c1-8.92.46-18.06.2-27.1-.15-5.48,2-7.68,7.5-7.6q23.19.3,46.39.13c5,0,7.29,1.67,7.22,6.95q-.35,23.14-.12,46.3c.07,5.54-2.17,7.62-7.59,7.49-8.8-.2-17.6-.14-26.4.08-12.63.32-30.79,16.35-32.68,28.75a18.31,18.31,0,0,0,.07,5.53c1.64,10.38,18.5,27.93,28.89,28,23.39.21,47,1.08,70.14-1.81C478.83,468,503,441.3,508.65,409.51c5.44-30.54-9.47-62.81-36.13-78.58a84.42,84.42,0,0,0-44.14-12.11c-25.06.1-50.12,0-75.19.14-17.68.1-34.79,17.08-35.05,34.59-.08,5.32.51,10.73-.33,15.93-.35,2.21-3.51,5.58-5.5,5.66-13,.54-26.13.56-39.17.08-2-.08-5.5-3.57-5.57-5.59q-.76-19.53,0-39.09c.08-2,3.43-4.7,5.8-5.5,2.88-1,6.36-.57,9.52-.2,12.77,1.53,22.39-3.31,31.05-12.68,6.81-7.36,10.65-15,10.06-25-.34-5.83-.09-11.7-.07-17.56,0-11.92.05-11.93,11.6-11.94h51.19C386.75,257.34,432.89,256.71,455.28,260.57Z" transform="translate(-241.69 -257.43)"/><path class="cls-1" d="M261.71,297.58c-20,.05-20,.05-20-20.31,0-19.58,0-19.58,19.86-19.53s20,0,20,20.15C281.56,297.52,281.56,297.52,261.71,297.58Z" transform="translate(-241.69 -257.43)"/></svg>